<svg width="160" height="72" viewBox="0 0 160 72" fill="none" xmlns="http://www.w3.org/2000/svg">
<path d="M36.5121 71.695C27.1612 71.695 17.8102 68.1946 10.6761 61.2105C-3.5587 47.2258 -3.5587 24.4734 10.6761 10.4886C24.9109 -3.4962 48.0967 -3.4962 62.3315 10.4886L80 27.8404L97.6685 10.4886C111.903 -3.4962 135.089 -3.4962 149.324 10.4886C163.559 24.4734 163.559 47.2258 149.324 61.2105C135.089 75.1953 111.903 75.1953 97.6685 61.2105L80 43.8587L62.3315 61.2105C55.2308 68.1946 45.8798 71.695 36.5121 71.695ZM36.5121 11.322C30.1115 11.322 23.7108 13.7056 18.8436 18.4894C9.09261 28.0571 9.09261 43.6254 18.8436 53.193C28.5946 62.7607 44.4463 62.7607 54.1806 53.193L71.8492 35.8412L54.1806 18.4894C49.3135 13.7223 42.9128 11.322 36.5121 11.322ZM88.1675 35.8579L105.836 53.2097C115.587 62.7774 131.439 62.7774 141.173 53.2097C150.907 43.642 150.924 28.0738 141.173 18.5061C131.422 8.93843 115.57 8.93843 105.836 18.5061L88.1675 35.8579Z" fill="#006871"/>
</svg>
